#N canvas 827 239 527 271 12;
#X msg 194 113 bgcolor 200 100 10;
#X msg 339 113 fgcolor 100 200 50;
#X msg 102 113 size 100;
#X obj 156 190 circle-gui 127 -1 1 0.759843 0.751969 0 -1 -1 1 -1 -1;
#X obj 156 390 print;
#X text 532 112 Simple circle gui slider \; \; This uses pdlua's graphics capabilities to draw a circular slider and respond to mouse events. \; \; It will also remember the slider position all of the properties you set when you reload the patch \, or copy/paste the object. It does so by calling the self:set_args function in the pd_lua script. \; \; The list you passed to self:set_args will be the constructor arguments next time the object is initialised \, so you can parse them and make sure the object initialises to its last known state. \; \; To test the state saving \, drag the slider \, set some properties and then duplicate the object, f 53;
#X connect 0 0 3 0;
#X connect 1 0 3 0;
#X connect 2 0 3 0;
#X connect 3 0 4 0;
