#N canvas 433 315 876 306 12;
#X obj 40 50 dial;
#X floatatom 40 10 5 0 0 0 - phase -, f 5;
#X obj 200 70 tgl 15 0 empty empty empty 17 7 0 10 #fcfcfc #000000
#000000 0 1;
#X text 200 40 clock;
#X obj 200 94 metro 1000;
#X floatatom 200 152 5 0 0 0 - - -, f 5;
#X msg 200 210 0;
#X obj 200 180 s phase;
#X text 400 40 random speedometer;
#X obj 400 70 tgl 15 0 empty empty empty 17 7 0 10 #fcfcfc #000000
#000000 0 1;
#X floatatom 400 152 5 0 0 0 - - -, f 5;
#X obj 400 239 line;
#X obj 400 274 s phase;
#X obj 400 123 expr phase = random(-100 \, 100)/300.;
#X msg 400 210 \$1 100;
#X obj 400 94 metro 100;
#X obj 200 123 expr phase = phase + 1/60.;
#X obj 200 240 t f f;
#X obj 20 12 bng 15 250 50 0 empty empty empty 17 7 0 10 #fcfcfc #000000
#000000;
#X floatatom 40 210 5 0 0 0 - - -, f 5;
#X obj 40 274 v phase;
#X obj 40 238 change;
#X obj 680 70 adc~;
#X obj 740 70 tgl 15 0 empty empty empty 17 7 0 10 #fcfcfc #000000
#000000 0 1;
#X obj 680 274 s phase;
#X text 680 40 dB meter;
#X obj 680 123 env~;
#X obj 680 99 *~ 0.5;
#X obj 680 186 expr ($f1-50)/100;
#X floatatom 680 152 5 0 0 0 - - -, f 5;
#X text 700 206 0..100 dB -> -0.5..+0.5 phase, f 16;
#X msg 740 94 \; pd dsp \$1;
#N canvas 767 395 479 405 colors-and-size 0;
#X text 120 70 black on white;
#X text 120 100 white on black;
#X text 120 230 orange;
#X text 20 20 fg = foreground color (hand and border) \, bg = background
color (face), f 40;
#X text 20 140 rgb colors;
#X msg 20 70 fg 1 \, bg 0;
#X msg 20 100 fg 0 \, bg 1;
#X text 120 300 teal;
#X text 120 330 orange;
#X obj 20 370 outlet;
#X msg 20 300 bg 0 128 128;
#X msg 20 170 fg 0 183 235;
#X text 120 170 cyan;
#X text 120 200 teal;
#X msg 20 200 fg 0 128 128;
#X text 120 270 cyan;
#X msg 20 270 bg 0 183 235;
#X text 190 200 foreground;
#X text 190 300 background;
#X msg 20 230 fg 255 165 0;
#X msg 20 330 bg 255 165 0;
#X floatatom 300 300 5 50 127 0 - - -, f 5;
#X msg 300 328 size \$1;
#X text 280 250 size of the dial -- this sets the object size, f 24
;
#X connect 5 0 9 0;
#X connect 6 0 9 0;
#X connect 10 0 9 0;
#X connect 11 0 9 0;
#X connect 14 0 9 0;
#X connect 16 0 9 0;
#X connect 19 0 9 0;
#X connect 20 0 9 0;
#X connect 21 0 22 0;
#X connect 22 0 9 0;
#X restore 90 10 pd colors-and-size;
#X text 230 10 <--- click to open;
#X connect 0 0 19 0;
#X connect 1 0 0 0;
#X connect 2 0 4 0;
#X connect 4 0 16 0;
#X connect 5 0 7 0;
#X connect 6 0 17 0;
#X connect 9 0 15 0;
#X connect 10 0 14 0;
#X connect 11 0 12 0;
#X connect 13 0 10 0;
#X connect 14 0 11 0;
#X connect 15 0 13 0;
#X connect 16 0 5 0;
#X connect 17 0 20 0;
#X connect 17 1 12 0;
#X connect 18 0 0 0;
#X connect 19 0 21 0;
#X connect 21 0 20 0;
#X connect 22 0 27 0;
#X connect 22 1 27 0;
#X connect 23 0 31 0;
#X connect 26 0 29 0;
#X connect 27 0 26 0;
#X connect 28 0 24 0;
#X connect 29 0 28 0;
#X connect 32 0 0 0;
